<svg width="161" height="68" viewBox="0 0 161 68" fill="none" xmlns="http://www.w3.org/2000/svg">
  <path d="M13.3326 44.0071V32.3611H8.52765V29.755H21.0694V32.3611H16.2848V44.0071H13.3326ZM22.2879 44.0071V33.3995H25.0772V44.0071H22.2879ZM23.6724 32.1372C23.238 32.1372 22.8647 31.9811 22.5525 31.6689C22.2404 31.3567 22.0843 30.9834 22.0843 30.5491C22.0843 30.1012 22.2404 29.7279 22.5525 29.4293C22.8647 29.1171 23.238 28.961 23.6724 28.961C24.1203 28.961 24.4935 29.1171 24.7922 29.4293C25.1043 29.7279 25.2604 30.1012 25.2604 30.5491C25.2604 30.9834 25.1043 31.3567 24.7922 31.6689C24.4935 31.9811 24.1203 32.1372 23.6724 32.1372ZM27.0041 44.0071V33.3995H29.7934V34.2139C30.5535 33.5352 31.4765 33.1959 32.5624 33.1959C33.2546 33.1959 33.8722 33.3384 34.4151 33.6234C34.9581 33.8949 35.406 34.2818 35.7589 34.784C36.1933 34.2682 36.7023 33.8746 37.2859 33.6031C37.8831 33.3316 38.5415 33.1959 39.2608 33.1959C40.0617 33.1959 40.7607 33.3791 41.3579 33.7456C41.9687 34.0985 42.4438 34.5939 42.7831 35.2319C43.136 35.8563 43.3125 36.5892 43.3125 37.4308V44.0071H40.5435V37.838C40.5435 37.1457 40.3603 36.6028 39.9938 36.2092C39.6273 35.802 39.1387 35.5984 38.5279 35.5984C38.1071 35.5984 37.7203 35.6866 37.3674 35.8631C37.028 36.0395 36.7362 36.3042 36.4919 36.6571C36.5054 36.7793 36.519 36.9014 36.5326 37.0236C36.5462 37.1457 36.553 37.2815 36.553 37.4308V44.0071H33.7636V37.838C33.7636 37.1457 33.5804 36.6028 33.2139 36.2092C32.861 35.802 32.3791 35.5984 31.7683 35.5984C31.3476 35.5984 30.9675 35.6798 30.6282 35.8427C30.3024 36.0056 30.0242 36.2499 29.7934 36.5757V44.0071H27.0041ZM45.181 44.0071V33.3995H47.9703V44.0071H45.181ZM46.5655 32.1372C46.1311 32.1372 45.7579 31.9811 45.4457 31.6689C45.1335 31.3567 44.9774 30.9834 44.9774 30.5491C44.9774 30.1012 45.1335 29.7279 45.4457 29.4293C45.7579 29.1171 46.1311 28.961 46.5655 28.961C47.0134 28.961 47.3867 29.1171 47.6853 29.4293C47.9975 29.7279 48.1536 30.1012 48.1536 30.5491C48.1536 30.9834 47.9975 31.3567 47.6853 31.6689C47.3867 31.9811 47.0134 32.1372 46.5655 32.1372ZM49.8972 44.0071V33.3995H52.6865V34.275C53.4874 33.5556 54.4782 33.1959 55.6591 33.1959C56.4871 33.1959 57.2133 33.3791 57.8376 33.7456C58.4756 34.0985 58.971 34.5939 59.3239 35.2319C59.6768 35.8563 59.8533 36.5892 59.8533 37.4308V44.0071H57.064V37.838C57.064 37.1457 56.8671 36.6028 56.4735 36.2092C56.0799 35.802 55.5437 35.5984 54.8651 35.5984C54.39 35.5984 53.9692 35.6934 53.6027 35.8834C53.2363 36.0599 52.9309 36.3178 52.6865 36.6571V44.0071H49.8972ZM67.046 48.3641C66.2316 48.3641 65.4443 48.2759 64.6842 48.0995C63.9241 47.9366 63.2386 47.699 62.6278 47.3868L63.6051 45.2287C64.1888 45.5137 64.7588 45.7241 65.3153 45.8598C65.8719 45.9956 66.4284 46.0634 66.9849 46.0634C67.8128 46.0634 68.4372 45.887 68.858 45.5341C69.2923 45.1812 69.5095 44.6518 69.5095 43.946V43.1112C68.6408 43.7492 67.6703 44.0682 66.598 44.0682C65.5936 44.0682 64.6842 43.8306 63.8698 43.3556C63.069 42.8669 62.4242 42.2086 61.9356 41.3806C61.4605 40.5527 61.223 39.6365 61.223 38.632C61.223 37.6276 61.4605 36.7182 61.9356 35.9038C62.4242 35.0894 63.0825 34.4446 63.9105 33.9696C64.7385 33.4809 65.6615 33.2366 66.6795 33.2366C67.1953 33.2366 67.6975 33.3113 68.1861 33.4606C68.6748 33.6099 69.1295 33.8203 69.5502 34.0917V33.3995H72.2988V43.9867C72.2988 45.3848 71.8441 46.4639 70.9347 47.224C70.0389 47.9841 68.7426 48.3641 67.046 48.3641ZM67.0256 41.7064C67.5414 41.7064 68.0097 41.625 68.4304 41.4621C68.8512 41.2856 69.2109 41.0413 69.5095 40.7291V36.5757C69.2109 36.277 68.8444 36.0463 68.4101 35.8834C67.9893 35.707 67.5346 35.6187 67.046 35.6187C66.4623 35.6187 65.9397 35.7545 65.4782 36.0259C65.0167 36.2838 64.6503 36.6435 64.3788 37.105C64.1073 37.5529 63.9716 38.0619 63.9716 38.632C63.9716 39.2157 64.1005 39.7383 64.3584 40.1997C64.6299 40.6612 64.9964 41.0277 65.4579 41.2992C65.9329 41.5707 66.4555 41.7064 67.0256 41.7064ZM74.4052 44.0071V29.755H81.5515C82.4881 29.755 83.3093 29.9451 84.0151 30.3251C84.7345 30.7052 85.2978 31.2345 85.705 31.9132C86.1122 32.5783 86.3158 33.352 86.3158 34.2343C86.3158 35.0758 86.1122 35.8291 85.705 36.4942C85.2978 37.1593 84.7345 37.6819 84.0151 38.0619C83.2957 38.442 82.4745 38.632 81.5515 38.632H77.3574V44.0071H74.4052ZM77.3574 36.1888H81.2258C81.8637 36.1888 82.3727 36.0124 82.7528 35.6595C83.1464 35.3065 83.3432 34.8383 83.3432 34.2546C83.3432 33.6574 83.1464 33.1823 82.7528 32.8294C82.3727 32.4765 81.8637 32.3 81.2258 32.3H77.3574V36.1888ZM91.7397 44.2107C90.9253 44.2107 90.1991 44.0342 89.5612 43.6813C88.9368 43.3148 88.4414 42.8126 88.0749 42.1747C87.722 41.5367 87.5455 40.8038 87.5455 39.9758V33.3995H90.3348V39.5686C90.3348 40.2473 90.5317 40.7902 90.9253 41.1974C91.3325 41.6046 91.8754 41.8082 92.5541 41.8082C93.0156 41.8082 93.4296 41.72 93.7961 41.5435C94.1761 41.3535 94.4883 41.0888 94.7326 40.7495V33.3995H97.5219V44.0071H94.7326V43.152C93.9182 43.8578 92.9206 44.2107 91.7397 44.2107ZM99.4413 48.1605V33.3995H102.19V34.275C103.059 33.5963 104.063 33.257 105.203 33.257C106.208 33.257 107.117 33.5013 107.931 33.9899C108.746 34.4786 109.391 35.1369 109.866 35.9649C110.354 36.7793 110.599 37.6955 110.599 38.7135C110.599 39.7315 110.354 40.6545 109.866 41.4824C109.377 42.2968 108.719 42.9484 107.891 43.437C107.063 43.9121 106.14 44.1496 105.122 44.1496C104.592 44.1496 104.083 44.0817 103.595 43.946C103.106 43.7967 102.651 43.5863 102.231 43.3148V48.1605H99.4413ZM104.755 41.7878C105.339 41.7878 105.862 41.6521 106.323 41.3806C106.798 41.1092 107.171 40.7427 107.443 40.2812C107.714 39.8197 107.85 39.2971 107.85 38.7135C107.85 38.1298 107.714 37.6072 107.443 37.1457C107.171 36.6707 106.798 36.3042 106.323 36.0463C105.862 35.7748 105.339 35.6391 104.755 35.6391C104.24 35.6391 103.764 35.7273 103.33 35.9038C102.909 36.0667 102.543 36.3178 102.231 36.6571V40.7902C102.529 41.1024 102.896 41.3467 103.33 41.5232C103.778 41.6996 104.253 41.7878 104.755 41.7878ZM112.031 48.1605V33.3995H114.78V34.275C115.648 33.5963 116.653 33.257 117.793 33.257C118.798 33.257 119.707 33.5013 120.521 33.9899C121.336 34.4786 121.98 35.1369 122.456 35.9649C122.944 36.7793 123.188 37.6955 123.188 38.7135C123.188 39.7315 122.944 40.6545 122.456 41.4824C121.967 42.2968 121.309 42.9484 120.481 43.437C119.653 43.9121 118.73 44.1496 117.712 44.1496C117.182 44.1496 116.673 44.0817 116.185 43.946C115.696 43.7967 115.241 43.5863 114.821 43.3148V48.1605H112.031ZM117.345 41.7878C117.929 41.7878 118.451 41.6521 118.913 41.3806C119.388 41.1092 119.761 40.7427 120.033 40.2812C120.304 39.8197 120.44 39.2971 120.44 38.7135C120.44 38.1298 120.304 37.6072 120.033 37.1457C119.761 36.6707 119.388 36.3042 118.913 36.0463C118.451 35.7748 117.929 35.6391 117.345 35.6391C116.829 35.6391 116.354 35.7273 115.92 35.9038C115.499 36.0667 115.133 36.3178 114.821 36.6571V40.7902C115.119 41.1024 115.486 41.3467 115.92 41.5232C116.368 41.6996 116.843 41.7878 117.345 41.7878ZM125.361 48.3845C125.117 48.3845 124.879 48.3709 124.649 48.3438C124.431 48.3302 124.248 48.3098 124.099 48.2827V45.8802C124.37 45.9345 124.696 45.9616 125.076 45.9616C126.094 45.9616 126.8 45.4798 127.194 44.5161L127.356 44.1089L123.223 33.3995H126.298L128.945 40.6273L131.937 33.3995H134.951L130.064 44.8622C129.698 45.7173 129.297 46.4028 128.863 46.9186C128.429 47.4344 127.927 47.8076 127.356 48.0384C126.8 48.2691 126.135 48.3845 125.361 48.3845Z" fill="white"/>
  <path d="M108.609 51.6293C113.224 56.2146 119.581 59.0479 126.6 59.0479C140.696 59.0479 152.124 47.6205 152.124 33.5239C152.124 19.4275 140.696 8 126.6 8C113.904 8 103.373 17.2696 101.406 29.4101" stroke="white" stroke-width="2" stroke-linecap="round"/>
  <ellipse cx="126.182" cy="14.614" rx="1.5" ry="1.57566" fill="#41D6B9"/>
  <ellipse cx="144.561" cy="34.1738" rx="1.5" ry="1.57566" fill="#41D6B9"/>
  <ellipse cx="126.182" cy="53.7339" rx="1.5" ry="1.57566" fill="#41D6B9"/>
  <ellipse cx="112.222" cy="20.9561" rx="1.5" ry="1.57566" fill="#41D6B9"/>
  <ellipse cx="139.366" cy="20.9561" rx="1.5" ry="1.57566" fill="#41D6B9"/>
  <ellipse cx="139.366" cy="47.4015" rx="1.5" ry="1.57566" fill="#41D6B9"/>
  <line x1="141.755" y1="20.5098" x2="133.36" y2="28.9047" stroke="#8940FA" stroke-width="3.53547" stroke-linecap="round"/>
  </svg>
  