<svg xmlns="http://www.w3.org/2000/svg" width="61" height="61" viewBox="0 0 175 150">
	<title>logo</title>
	<g id="logo">
<path d="M48.82,26.59c0,0,9.19,7.3,11,8.72c2.51,1.96,4.07,6.48,6.99,7.77c2.92,1.29,6.14,1.32,9.04,2.17
	c2.99,0.87,5.46,3.33,7.45,3.83s15.49,1,18.49,0.5c3-0.5,18.99-3,26.98-3.5c8-0.5,15.49,3.5,17.99,5.5
	c2.5,2,11.46,12.48,13.49,15.49c2.03,3.01,3,5.5,3.5,9.99c0,0,0,6,0,8c0,2-0.07,4.51,0,6.5c0.07,1.99,1.5,6,2,9.49
	c0.5,3.5,0.5,6.5,1,8.49c0,0,0.5,2.5,1,3.5c0.5,1,3,4,3,4s1.5,2,1.5,3.5c0,1.5-0.5,3-1,5s-0.5,5.5-0.5,5.5l-0.5,11.49
	c0,0-0.82,2.9-3.26,3.37c0,0-7.06-0.06-12.73-0.06c0.42-3.26,2.2-5.38,3.73-5.85c1.56-0.48,3.05-0.91,3.59-1.17
	c0.54-0.26,0.34-6.04,0.32-7.77c-0.02-1.73,0.35-5.5-2.15-8c-2.5-2.5-8.49-8-11.49-10.99c-3-3-8-9.99-9.99-12.99s-3-7-5.5-8.49
	s-10.99,2.5-13.49,4c-2.5,1.5-15.49,8.49-20.49,9.99c-5,1.5-8,2-11.99,2.5c-4,0.5-9,0.95-12.29,1c-0.3,2.6-0.97,6.3-1.2,8
	c-0.23,1.7-0.34,10.47-0.5,11.99s0.31,3.6-0.03,4.72c-0.53,1.72-1.97,2.27-1.97,3.27c0,1,0.16,3.16-0.34,3.66s-1.07,1.26-1.15,1.84
	s0.23,2.42,0.01,4.33c-2.31,0.08-11.04,0.04-15.49,0c0.21-1.6,1.66-4.66,2.99-5.33c1.33-0.67,3.5-1,4-2s0.5-8.99,0.5-8.99
	s-1.5-8.49-2.5-11.49c-1-3-1-9.49-1.5-11.49s-2-2.5-3-3c-1-0.5-7-4-8.49-6c-1.5-2-4.57-4.77-5.67-8.67c-1.1-3.9-0.82-5.32-1.32-7.82
	s-1-6-2.5-8c-1.5-2-3.5-5-6-6c-2.5-1-5.5-0.5-9.49-1.5c-4-1-7.5-3-9.49-3.5s-3-1-4.5-2.5c-1.5-1.5-1.5-4-2-4.5c-0.5-0.5-1.5-2.5-2-4
	c-0.5-1.5,1-3.5,1-3.5s2.2-3.41,2.5-4c0.37-1.29,0.5-2,1-2.5c0.5-0.5,1.5-0.5,1.5-0.5s0-1,0.5-1.5c0.5-0.5,1.5-0.5,1.5-0.5
	s0.5-1.5,0.5-2.5c0-1,1-3,1.5-4c0.5-1,1-1.74,1.58-2.77s6.11-4.89,7.06-5.71c0.95-0.82,3.35-2.03,4.98-2.01c1.63,0.02,3.37,0,3.37,0
	s1.5-2.5,3-3.5c1.5-1,2-1.5,2.5-3s3-6.5,3.5-7.5s2.5-3.5,4-3.5c1.5,0,3.5,2.5,4,4s0.5,8,0.5,8.49
	C47.33,17.1,48.82,22.09,48.82,26.59z" fill="#41D6B9"/>
	</g>
</svg>