<svg width="51" height="42" viewBox="0 0 51 42" fill="none" xmlns="http://www.w3.org/2000/svg">
  <g clip-path="url(#clip0_2_784)">
  <path d="M48.0765 23.8763C47.8086 25.715 48.4211 27.4466 48.6991 29.2228C48.8102 29.938 48.8847 30.6576 48.9792 31.375C49.0807 32.08 49.4026 32.7344 49.8987 33.2438C50.519 33.9199 50.5891 34.6541 50.4223 35.5623C50.1766 36.9011 50.1388 38.2879 50.0232 39.6536C49.9954 39.9883 50.0165 40.323 50.0043 40.6577C49.9698 41.6005 49.5518 41.9965 48.6168 41.9965C47.7641 41.9965 46.9114 41.9965 46.0598 41.9831C45.5484 41.9731 45.4294 41.77 45.6629 41.3137C45.7785 41.0805 45.9423 40.8747 46.1434 40.71C46.3445 40.5454 46.5783 40.4256 46.8291 40.3587C47.6929 40.0987 47.7007 40.0597 47.7074 39.1437C47.7074 38.4553 47.7207 37.7669 47.7074 37.0796C47.6863 36.2864 47.4206 35.5968 46.8236 35.0434C46.1031 34.374 45.4027 33.6834 44.6879 33.0073C42.6889 31.1416 41.033 28.9371 39.7962 26.4949C39.2614 25.4283 38.6844 25.1404 37.5727 25.5956C36.0838 26.2044 34.6313 26.8992 33.2224 27.6764C30.3318 29.273 27.3234 30.4434 23.986 30.5996C23.4301 30.6253 22.8742 30.7391 22.3261 30.7112C21.6969 30.6822 21.5201 30.9722 21.4123 31.539C21.0298 33.5473 21.0787 35.5712 21.051 37.5962C21.051 37.7256 21.0976 37.8818 21.0432 37.9822C20.6441 38.7212 20.3805 39.5262 20.2649 40.3587C20.2127 40.7146 20.0659 41.0649 20.0626 41.4186C20.0626 41.8147 19.9692 42.0055 19.5423 41.9999C18.4117 41.9854 17.281 41.9999 16.1504 41.9999C15.7268 41.9999 15.5678 41.7957 15.8346 41.4543C16.1014 41.1129 16.4161 40.6733 16.8007 40.5361C17.5189 40.2728 17.7402 39.8153 17.8013 39.1158C17.928 37.5884 17.5867 36.1257 17.3132 34.6463C17.0742 33.3543 16.8797 32.0534 16.6962 30.7513C16.6006 30.0652 16.1971 29.6713 15.6234 29.369C14.4649 28.7598 13.4399 27.9989 12.605 26.9579C11.82 26.0117 11.3462 24.8448 11.2487 23.6175C11.1086 21.8859 10.6928 20.2536 9.31865 19.0833C8.86025 18.6917 8.2997 18.44 7.70328 18.3581C6.19019 18.2052 4.74714 17.8794 3.38413 17.1955C2.86383 16.9333 2.31907 16.7191 1.80433 16.4457C1.62937 16.3378 1.49072 16.1796 1.40633 15.9916C1.0917 15.3222 0.763734 14.6528 0.535825 13.9544C0.446885 13.6799 0.535826 13.2916 0.668124 13.0105C0.969991 12.3557 1.31541 11.722 1.70205 11.1138C1.90106 10.8014 2.24125 10.5816 2.48917 10.2948C2.65927 10.0985 2.85049 9.87534 2.91052 9.63435C3.21181 8.40707 3.74211 7.34157 4.81495 6.60297C5.2263 6.31959 5.57984 5.93355 6.01787 5.71041C6.501 5.45715 7.02231 5.28528 7.56098 5.20165C8.0746 5.12913 8.52709 5.07557 8.85617 4.60474C9.03293 4.35259 9.33311 4.1897 9.52989 3.94648C9.76124 3.66479 9.96211 3.35924 10.1291 3.03495C10.4815 2.34098 10.7784 1.61688 11.1441 0.929607C11.3965 0.454316 11.7123 -0.0287845 12.3448 0.00133959C12.7551 0.0214223 13.321 0.771177 13.3854 1.34019C13.5555 2.85085 13.7267 4.36264 13.8479 5.87777C13.8868 6.36533 14.0458 6.70339 14.4249 7.00798C15.4511 7.83137 16.4561 8.68154 17.4489 9.54175C17.7099 9.77782 17.933 10.0529 18.1104 10.3573C18.6396 11.2298 19.42 11.6962 20.3972 11.878C21.509 12.0822 22.5852 12.3243 23.5468 13.0261C23.9737 13.3363 24.6263 13.3987 25.1867 13.4512C27.6525 13.6743 30.0984 13.5204 32.5431 13.1075C34.3286 12.8052 36.1363 12.5497 37.9429 12.4749C40.2865 12.3734 42.3465 13.1834 43.9363 14.9764C44.9369 16.101 45.8941 17.2569 46.8391 18.425C47.7285 19.5206 48.0832 20.8126 48.0898 22.2117C48.0787 22.7606 48.0765 23.3185 48.0765 23.8763Z" fill="#8940FA"/>
  </g>
  <defs>
  <clipPath id="clip0_2_784">
  <rect width="50" height="42" fill="white" transform="translate(0.5)"/>
  </clipPath>
  </defs>
  </svg>
