<svg width="19" height="19" viewBox="0 0 19 19" fill="none" xmlns="http://www.w3.org/2000/svg">
  <path fill-rule="evenodd" clip-rule="evenodd" d="M11.1281 0.497161L11.5966 1.89554C11.6579 2.07848 11.7897 2.2297 11.963 2.31594L12.4231 2.5448L12.8148 2.68835C12.9987 2.74933 13.1993 2.73514 13.3727 2.64891L14.6978 1.9897C14.9791 1.84974 15.3189 1.9046 15.5413 2.1259L16.8634 3.44129C17.0858 3.66258 17.1409 4.00066 17.0003 4.28058L16.3377 5.59898C16.251 5.77146 16.2368 5.97113 16.2981 6.15407L16.4423 6.63955L16.6723 7.09726C16.759 7.26973 16.911 7.40089 17.0949 7.46187L18.5003 7.928C18.7987 8.02696 19 8.30481 19 8.61777V10.478C19 10.791 18.7987 11.0688 18.5003 11.1678L17.0949 11.6339C16.911 11.6949 16.759 11.826 16.6723 11.9985L16.4648 12.4114L16.2981 12.8459C16.2368 13.0289 16.251 13.2285 16.3377 13.401L17.0003 14.7194C17.1409 14.9993 17.0858 15.3374 16.8634 15.5587L15.5413 16.8741C15.3189 17.0954 14.9791 17.1503 14.6978 17.0103L13.3727 16.3511C13.1993 16.2649 12.9987 16.2507 12.8148 16.3116L12.3917 16.4735L11.963 16.6841C11.7897 16.7703 11.6579 16.9215 11.5966 17.1045L11.1281 18.5028C11.0286 18.7997 10.7494 19 10.4348 19H8.56517C8.25062 19 7.97137 18.7997 7.8719 18.5028L7.40341 17.1045C7.34212 16.9215 7.21031 16.7703 7.03695 16.6841L6.64258 16.4901L6.18521 16.3116C6.00134 16.2507 5.80066 16.2649 5.62731 16.3511L4.30222 17.0103C4.02088 17.1503 3.6811 17.0954 3.45868 16.8741L2.13663 15.5587C1.91421 15.3374 1.85907 14.9993 1.99974 14.7194L2.66229 13.401C2.74896 13.2285 2.76322 13.0289 2.70193 12.8459L2.52629 12.3832L2.32768 11.9027C2.241 11.7303 2.08901 11.5991 1.90515 11.5381L0.49968 11.072C0.201276 10.973 0 10.6952 0 10.3822V8.52199C0 8.20903 0.201276 7.93119 0.49968 7.83222L1.90515 7.36609C2.08901 7.30511 2.241 7.17396 2.32768 7.00148L2.532 6.58921L2.70193 6.15407C2.76322 5.97113 2.74896 5.77146 2.66229 5.59898L1.99974 4.28058C1.85907 4.00066 1.91421 3.66258 2.13663 3.44129L3.45868 2.1259C3.6811 1.90461 4.02088 1.84974 4.30222 1.9897L5.62731 2.64891C5.80066 2.73515 6.00134 2.74934 6.18521 2.68836L6.63387 2.50267L7.03695 2.31594C7.21031 2.2297 7.34212 2.07848 7.40341 1.89554L7.8719 0.497161C7.97137 0.200261 8.25062 0 8.56517 0H10.4348C10.7494 0 11.0286 0.200261 11.1281 0.497161ZM14.4007 9.50003C14.4007 12.193 12.2066 14.376 9.50008 14.376C6.79352 14.376 4.59942 12.193 4.59942 9.50003C4.59942 6.80712 6.79352 4.62408 9.50008 4.62408C12.2066 4.62408 14.4007 6.80712 14.4007 9.50003Z" fill="white"/>
  </svg>
  